<svg width="16" height="18" viewBox="0 0 16 18" fill="none" xmlns="http://www.w3.org/2000/svg">
<path d="M8.00001 0.666687C6.53822 0.666687 5.32101 1.75895 5.11671 3.16669H2.26596C2.23048 3.16062 2.19454 3.15762 2.15854 3.15774C2.12744 3.15841 2.09643 3.1614 2.06577 3.16669H0.708348C0.625528 3.16552 0.543301 3.18082 0.466446 3.2117C0.389591 3.24258 0.319641 3.28843 0.26066 3.34659C0.201678 3.40474 0.154843 3.47404 0.122876 3.55045C0.0909087 3.62686 0.0744467 3.70886 0.0744467 3.79169C0.0744467 3.87452 0.0909087 3.95652 0.122876 4.03293C0.154843 4.10934 0.201678 4.17863 0.26066 4.23679C0.319641 4.29494 0.389591 4.34079 0.466446 4.37167C0.543301 4.40256 0.625528 4.41786 0.708348 4.41669H1.59946L2.64845 15.2622C2.7614 16.4317 3.75492 17.3334 4.92954 17.3334H11.0697C12.2444 17.3334 13.2379 16.4318 13.3508 15.2622L14.4006 4.41669H15.2917C15.3745 4.41786 15.4567 4.40256 15.5336 4.37167C15.6104 4.34079 15.6804 4.29494 15.7394 4.23679C15.7983 4.17863 15.8452 4.10934 15.8772 4.03293C15.9091 3.95652 15.9256 3.87452 15.9256 3.79169C15.9256 3.70886 15.9091 3.62686 15.8772 3.55045C15.8452 3.47404 15.7983 3.40474 15.7394 3.34659C15.6804 3.28843 15.6104 3.24258 15.5336 3.2117C15.4567 3.18082 15.3745 3.16552 15.2917 3.16669H13.9351C13.8688 3.15593 13.8012 3.15593 13.7349 3.16669H10.8833C10.679 1.75895 9.46181 0.666687 8.00001 0.666687ZM8.00001 1.91669C8.783 1.91669 9.42533 2.44509 9.6089 3.16669H6.39113C6.57469 2.44509 7.21703 1.91669 8.00001 1.91669ZM2.85434 4.41669H13.1449L12.1065 15.1418C12.0544 15.6814 11.6117 16.0834 11.0697 16.0834H4.92954C4.38832 16.0834 3.94481 15.6807 3.89276 15.1418L2.85434 4.41669ZM6.53192 6.49107C6.3663 6.49366 6.20848 6.56187 6.09312 6.68074C5.97776 6.79961 5.91431 6.9594 5.91668 7.12502V13.375C5.91551 13.4578 5.93081 13.5401 5.96169 13.6169C5.99258 13.6938 6.03843 13.7637 6.09658 13.8227C6.15473 13.8817 6.22403 13.9285 6.30044 13.9605C6.37685 13.9925 6.45885 14.0089 6.54168 14.0089C6.62451 14.0089 6.70651 13.9925 6.78292 13.9605C6.85933 13.9285 6.92863 13.8817 6.98678 13.8227C7.04493 13.7637 7.09078 13.6938 7.12167 13.6169C7.15255 13.5401 7.16785 13.4578 7.16668 13.375V7.12502C7.16788 7.04137 7.15228 6.95833 7.12079 6.88082C7.0893 6.80331 7.04258 6.7329 6.98338 6.67379C6.92419 6.61467 6.85373 6.56803 6.77618 6.53665C6.69863 6.50526 6.61557 6.48976 6.53192 6.49107ZM9.44858 6.49107C9.28296 6.49366 9.12514 6.56187 9.00979 6.68074C8.89443 6.79961 8.83097 6.9594 8.83335 7.12502V13.375C8.83218 13.4578 8.84748 13.5401 8.87836 13.6169C8.90924 13.6938 8.95509 13.7637 9.01325 13.8227C9.0714 13.8817 9.14069 13.9285 9.21711 13.9605C9.29352 13.9925 9.37552 14.0089 9.45835 14.0089C9.54117 14.0089 9.62318 13.9925 9.69959 13.9605C9.776 13.9285 9.84529 13.8817 9.90345 13.8227C9.9616 13.7637 10.0075 13.6938 10.0383 13.6169C10.0692 13.5401 10.0845 13.4578 10.0833 13.375V7.12502C10.0845 7.04137 10.0689 6.95833 10.0375 6.88082C10.006 6.80331 9.95925 6.7329 9.90005 6.67379C9.84086 6.61467 9.77039 6.56803 9.69284 6.53665C9.61529 6.50526 9.53223 6.48976 9.44858 6.49107Z" fill="black" fill-opacity="0.6"/>
</svg>
